# xmcd CD database file
# 
# Track frame offsets:
# 	150
# 	13550
# 	27463
# 	40788
# 	54487
# 	66890
# 	79785
# 	90573
# 	104546
# 	115784
# 	130012
# 	140918
# 	151831
# 	163019
# 
# Disc length: 2327 seconds
# 
# Submitted via: Nero 6, 3, 1, 17
# 
# Revision: 0
# Processed by: cddbd v1.5.1PL0 Copyright (c) Steve Scherf et al.
#
DISCID=b309150e
DTITLE=Stuart Hamblen - I Gotta Feeling [CD-1 of 2)
DYEAR=1900
DGENRE=
TTITLE0=Pony Express
TTITLE1=Sailor's Farewell
TTITLE2=Bluebonnets For Her Golden Hair
TTITLE3=Lola Lee
TTITLE4=My Mary
TTITLE5=Whistling My Love Song To You
TTITLE6=They're Gonna Kill You
TTITLE7=Don't Fool Around With Calico When You Have Silk At Home
TTITLE8=My Life With You
TTITLE9=Let's See You Fix It
TTITLE10=I Won't Go Huntin' With You Jake
TTITLE11=Oklahoma Bill
TTITLE12=Grass Hopper McLain
TTITLE13=Our Love Afair Will Always Smolder
EXTD=
EXTT0=
EXTT1=
EXTT2=
EXTT3=
EXTT4=
EXTT5=
EXTT6=
EXTT7=
EXTT8=
EXTT9=
EXTT10=
EXTT11=
EXTT12=
EXTT13=
PLAYORDER=
